/* XPM */
static char *_26a6dcd3e48467d84489c443293b26e7iMmDhwYSWiXTyFG[] = {
/* columns rows colors chars-per-pixel */
"60 50 174 2 ",
"   c #030201",
".  c #0B0503",
"X  c #0C0B05",
"o  c #0F0A08",
"O  c #110703",
"+  c #130B06",
"@  c #140D0A",
"#  c #1A0E0B",
"$  c #141206",
"%  c #191207",
"&  c #15110B",
"*  c #1B140D",
"=  c #17180F",
"-  c #1D190F",
";  c #171711",
":  c #1C1511",
">  c #1F1B13",
",  c #22160D",
"<  c #22190E",
"1  c #2B1F0F",
"2  c #211513",
"3  c #241C13",
"4  c #2A1E14",
"5  c #261D19",
"6  c #2B1E1A",
"7  c #301F17",
"8  c #311D1A",
"9  c #25200F",
"0  c #262115",
"q  c #2B2316",
"w  c #25231A",
"e  c #2C241B",
"r  c #2D291C",
"t  c #302216",
"y  c #32261B",
"u  c #332A1C",
"i  c #3B2B1E",
"p  c #2D2420",
"a  c #2D2B21",
"s  c #322421",
"d  c #342C22",
"f  c #3B2D22",
"g  c #38262A",
"h  c #3A2C2A",
"j  c #353224",
"k  c #3C3225",
"l  c #343926",
"z  c #3D3926",
"x  c #363429",
"c  c #3D352A",
"v  c #3C392C",
"b  c #3F3C30",
"n  c #44341F",
"m  c #402F22",
"M  c #412F2D",
"N  c #423425",
"B  c #483725",
"V  c #403B27",
"C  c #4B3927",
"Z  c #42352A",
"A  c #4C372A",
"S  c #443B2C",
"D  c #4B3D2D",
"F  c #513C2D",
"G  c #443C31",
"H  c #4A3E32",
"J  c #533F32",
"K  c #533F3C",
"L  c #45412E",
"P  c #4C422E",
"I  c #464234",
"U  c #4C4234",
"Y  c #4D4A36",
"T  c #474438",
"R  c #4C4439",
"E  c #4C4A3B",
"W  c #524435",
"Q  c #544935",
"!  c #584A36",
"~  c #53453B",
"^  c #534A3B",
"/  c #5A4D3D",
"(  c #5A4C3C",
")  c #55513E",
"_  c #5C503B",
"`  c #5B533E",
"'  c #63533F",
"]  c #4F4E40",
"[  c #574443",
"{  c #5E4741",
"}  c #544D41",
"|  c #5C4C43",
" . c #545040",
".. c #555143",
"X. c #5B5343",
"o. c #5E5A45",
"O. c #5E5349",
"+. c #5B5549",
"@. c #5D594C",
"#. c #604A44",
"$. c #624E41",
"%. c #635344",
"&. c #635843",
"*. c #645A46",
"=. c #685B46",
"-. c #625449",
";. c #645B4B",
":. c #6A5D4C",
">. c #715F4B",
",. c #645D52",
"<. c #6B5C51",
"1. c #705D56",
"2. c #65614D",
"3. c #6C634D",
"4. c #72634E",
"5. c #646153",
"6. c #6B6354",
"7. c #6E6955",
"8. c #6C655A",
"9. c #6F6A5B",
"0. c #716652",
"q. c #726553",
"w. c #796754",
"e. c #7A6C57",
"r. c #736459",
"t. c #7B645E",
"y. c #736D5B",
"u. c #7A6D5A",
"i. c #726C54",
"p. c #77715F",
"a. c #7F735C",
"s. c #736D61",
"d. c #796D63",
"f. c #767161",
"g. c #7B7263",
"h. c #7D7865",
"j. c #7D766B",
"k. c #7E7A6D",
"l. c #A57701",
"z. c #A67802",
"x. c #AC7C00",
"c. c #A97B04",
"v. c #AC7C00",
"b. c #B07F00",
"n. c #81735E",
"m. c #827563",
"M. c #847964",
"N. c #897B64",
"B. c #827568",
"V. c #857D6C",
"C. c #897B6A",
"Z. c #827F72",
"A. c #897E71",
"S. c #B08106",
"D. c #F4B500",
"F. c #F8B800",
"G. c #F8C636",
"H. c #F4C63F",
"J. c #85806D",
"K. c #8C866F",
"L. c #90816B",
"P. c #8C8475",
"I. c #8F8974",
"U. c #908775",
"Y. c #928B7A",
"T. c #F8CA42",
"R. c #F4D372",
"E. c #F8D878",
"W. c #F8D878",
"Q. c #9B9381",
"!. c #A19884",
"~. c #BFB6A4",
"^. c #FBF8F2",
"/. c white",
/* pixels */
"H ;.S / W 4 2 ! y j S v :.Z r.a S S Y j ; 0 e     :.g r G S w ) 4 e   w e k k O.{ O.} 0 m     ; d 0 0 u v c I ] @.@ d X ",
"Z N e D d u a 0 4   u 5 -.. ~ S L   R +.x v S   v.v.v.v.v.v.v.v.v.v.v.v.v.v.l.H s T 4 S Z : K k ` e v R x G 0.c o h d w ",
"% m $ f 4 N ( p Z z L < &.U / P e e > r S g.q * v.v.v.v.v.v.v.v.v.v.v.v.v.v.z.c X.4 I t.U E (   j j r o .. .R u u @ N y ",
"6 (   f , s ( @ $.Z : _ e.q N { k #.~ Z m / O o S.S.S.S.S.S.S.S.S.S.S.S.v.v.c.q.%.-.O U c d S r v v Y & & r   a X c y 4 ",
"B # B q e k + i i r L k y Z y k 5 W 0 v.v.v.v.v.E.E.E.E.E.E.E.E.E.E.E.E.v.v.v.c.v.v.v.~ Z S f q v |  .H e g k . M [ w o ",
"B * f   ~ D @ e e U y i 4 : 4 e ( 7.! v.v.v.v.v.E.E.E.E.E.E.E.E.E.E.E.E.v.v.v.c.v.v.v.w u S 3   ] H ..h w S R G x T L @ ",
"i X % 3 @ i 4 B %.u N f N *.N ( N v.v.E.E.E.E.E.F.F.F.F.F.F.F.F.F.F.F.F.E.E.W.W.E.v.v.v.v.Z 4 x 8.R [ ,.q y +.d d   e P ",
"N y W * D y W q u N S e u v Z S d v.v.E.E.E.E.E.F.F.F.F.F.F.F.F.F.F.F.F.E.E.W.W.E.v.v.v.v.E d   h X.y.X.*.L ^ c e E 3 0 ",
"3 , f 4 B * W B i q i < e N X v.c.W.W.W.W.F.F.F.F.F.v.v.v.v.v.v.v.v.F.F.F.F.F.W.W.W.W.v.v.v.v.j E G T ~ k s S ^ 4 > R G ",
"d 4 , * 4 % q ! 4 < N i S i P v.c.W.W.W.W.F.F.F.F.F.v.v.v.v.v.v.v.v.F.F.F.F.F.W.W.W.W.v.v.v.v.p   Q , R ~ k v U Q H . q ",
"e % f o k   , F / F P k k v.v.E.W.W.W.F.F.F.F.F.v.v.E.E.E.E.E.E.W.W.v.v.F.F.F.F.F.W.W.W.W.v.v.v.v.G r r 4 } d r 6 J d e ",
"5 5 * # y # S S N 4 q k k v.v.E.W.W.W.F.F.F.F.F.v.v.E.E.E.E.E.E.W.W.v.v.F.F.F.F.F.W.W.W.W.v.v.v.v.j -.r y X.@ k : E S c ",
"< 3 3 4 2 y A * W r.C P W v.v.E.W.F.F.F.F.b.v.v.E.E.F.F.E.E.E.E.F.F.W.W.v.v.v.F.F.F.F.W.W.v.v.v.v.G = W J @ q : d a G r ",
"  r i e 3 * k 4 %.@ L ; ..v.v.E.W.F.F.F.F.S.v.v.E.E.F.F.E.E.E.E.F.F.W.W.v.v.S.F.F.F.F.W.W.v.v.v.v.R } e S 3 H k 5 e y i ",
"Z 3 5 q   * - 0 U -.U v.v././.E.E.F.F.b.v.R.E.E.F.F.F.F.F.F.E.E.W.W.F.F.F.F.D.v.v.F.F.W.W.W.W.v.v.v.v.y y % S G Y x d @ ",
"@ j q @ H . f f > * d v.v././.E.E.F.F.v.v.R.E.E.F.F.F.F.F.F.E.E.W.W.F.F.F.F.D.v.v.F.F.W.W.W.W.v.v.v.v.z k > H f w u $ k ",
"3 X.S d S c q ~ e.-.S v.v././././.F.F.v.v.R.E.E.F.F.F.F.F.F.F.F.W.W.W.W.F.F.D.v.v.F.F.W.W.W.W.v.v.v.v.c _ . N k Z y 3 > ",
"S ( f ;.I ( d z N 4 U v.v././././.F.F.v.v.R.E.E.F.F.F.F.F.F.F.F.W.W.W.W.F.F.D.v.v.F.F.W.W.W.W.v.v.v.v.k f f   1 3 i 4 4 ",
"S k D &.u S y z q S k v.v././././.F.F.v.v.R.E.E.T.T.F.F.F.F.F.F.G.G.W.W.T.T.H.v.v.F.F.W.W.W.W.v.v.v.v.6 i , Z Z S t k f ",
"4 X.D j U k q D *   i v.v././././.F.F.v.v.R.E.E.E.E.F.F.F.F.F.F.F.F.W.W.W.W.R.v.v.F.F.W.W.W.W.v.v.v.v.O ~ X.* q d 4 k q ",
"o o X c < m < 3 N e * v.v././././.F.F.v.v.R.E.E.W.W.F.F.F.F.F.F.F.F.W.W.W.W.R.v.v.F.F.W.W.W.W.v.v.v.v.2.* d @ S e S 7 m ",
"c / y j < u y 4 < % O v.v././././.F.F.v.v.^././.W.W.W.W.F.F.F.F.F.F.F.F.W.W.R.v.v.F.F.W.W.W.W.v.v.v.v.Q . Q 6 d q e u 4 ",
". 4 q q B q 3 i , @ Z v.v././././.F.F.v.v.^././.W.W.W.W.F.F.F.F.F.F.F.F.W.W.R.v.v.F.F.W.W.W.W.v.v.v.v.^ X q.X N o 3 P X ",
"y   3 3 e 1 + * e d F v.v././././.F.F.v.v.^././././.W.W.W.W.F.F.F.F.F.F.F.F.D.v.v.F.F.W.W.W.W.v.v.v.v.y } 2 h r t + k < ",
"  k w   + = <   , t F v.v././././.F.F.v.v.^././././.W.W.W.W.F.F.F.F.F.F.F.F.D.v.v.F.F.W.W.W.W.v.v.v.v.3 Y U S d * 3 e + ",
"h ! f 4 4 i i n 3 3 D v.v././././.F.F.v.v.^././././././.W.W.W.W.F.F.F.F.F.F.D.v.v.F.F.W.W.W.W.v.v.v.v.;.^ S q % u * q d ",
"S 3 B u k N B y 0 k 3 v.v././././.F.F.v.v.^././././././.W.W.W.W.F.F.F.F.F.F.D.v.v.F.F.W.W.W.W.v.v.v.v.S q 0 v 2 0 # y 3 ",
"d S 0 % < Q y S < i @ v.v.E.E././.F.F.v.v.^././././././././.W.W.W.W.F.F.F.F.D.v.v.F.F.W.W.W.W.v.v.v.v.<.O.G : c u d d r ",
"V d L S $ S Z J d P X v.v.W.W././.F.F.v.v.^././././././././.W.W.W.W.F.F.F.F.D.v.v.F.F.W.W.W.W.v.v.v.v.U U P ~ q 2 u k k ",
"d S d : k ! w 3 f :.2.v.v.W.W.W.W.F.F.v.v.^././././././././././.W.W.W.W.F.F.D.v.v.F.F.W.W.W.W.v.v.v.v.S q.{ <.S F u > X.",
"k S U S k Z a e 2.e X.v.v.W.W.W.W.F.F.v.v.^././././././././././.W.W.W.W.F.F.D.v.v.F.F.W.W.W.W.v.v.v.v.: u f P ^ i > L g ",
"..2 j U @ S X.S z X.o.v.v.W.W.W.W.F.F.v.v.^././././././././././././.W.W.W.W.R.v.v.F.F.W.W.W.W.v.v.v.v.x . z ;.-.X.3 j c ",
"T ,.* u d d G b x T i.v.v.W.W.W.W.F.F.v.v.^././././././././././././.W.W.W.W.R.v.v.F.F.W.W.W.W.v.v.v.v.+.U S ` & H 6.x l ",
"-.^ X.:.q +.I T @.2.v v.v.W.W.W.W.F.F.v.v.^././././././././././././././.W.W.R.v.v.F.F.W.W.W.W.v.v.v.v.+.u ` &.i.k T > v ",
"M.,.R } 5.+.b ] o./ ..v.v.W.W.W.W.F.F.v.v.^././././././././././././././.W.W.R.v.v.F.F.W.W.W.W.v.v.v.v.~ v . % ` Z I c 9.",
"G ;.w v ,.5.T I &  .s.v.v.W.W.W.W.F.F.v.v.^././././././././././././././.W.W.R.v.v.F.F.W.W.W.W.v.v.v.v.k W 3 > e G ~ G V.",
",.E T @.5.8.I +.E G w.@.+.v.v.E.E.F.F.F.F.b.v.c././././././././././././.v.v.b.F.F.F.F.W.W.v.v.v.v.3 w H 7.W Z ` +.S b G ",
"r ,.E 8.^ T E a r S B.E d.c.v.E.E.F.F.F.F.S.v.c././././././././././././.v.v.b.F.F.F.F.W.W.v.v.v.v.R f k d } ! S S T y.] ",
"+...7.E } ..b a v ^ G ..y.v.v.E.E.E.E.F.F.F.F.F.v.v././././././././.v.v./././././.W.W.W.W.v.v.v.v.2 R H @ e E j Z ( ) a ",
" .V y.+.+.j   $ c x U <.} v.v.E.E.E.E.F.F.F.F.F.v.v././././././././.v.v./././././.W.W.W.W.v.v.v.v.U ` G e :.$.f ^ 9.,.k ",
"Y b o.L U f.v ) @.@.O.} ;.5.r v.v.W.W.W.W.F.F.F.F.F.v.v.v.v.v.v.v.v./././././././././.v.v.v.v.~ H *.e W d y   S I ) 6.Z ",
"h.h.r.~.!.I.0 9.U U @ E :..   v.v.W.W.W.W.F.F.F.F.F.v.v.v.v.v.v.v.v./././././././././.v.v.v.v.k x k 2 $ w d K T ^ I 8.) ",
"R ,.U p.:. .Q...*.M.n...d ~ 3 6.<.v.v.W.W.W.W.W.F.F.F.F.F.F./././././././././././.v.v.v.v.5 & s       k @ . Z 5 e j r X ",
"m.~ Y.3 9.k Z.8.y.m.Q I.%.H   b c v.v.W.W.W.W.W.F.F.F.F.F.F./././././././././././.v.v.v.v.u.Y.d.z k i d H Z o.} 2.w.a.e ",
"P.6.P.I.P.e s.Q./ V.2.L.c y :.;.5 h U v.v.v.v.v.W.W.W.W.W.W.W.W././././.v.v.v.v.v.v.v.j.X.q.R ) k X d k 4 ( & R ;.| } @.",
"5.f.I. .y.h.V.} 0.R   d ` 4 d . # ~ i v.v.v.v.v.W.W.W.W.W.W.W.W././././.v.v.v.v.v.v.v.y.N.s.B.u.r -.} k e 0 c d H R 7.u ",
"+.k.k.g.+.z f.J.5 I c r c I ~ Q Z T Z N u a & & v.v.v.v.v.v.v.v.v.v.v.v.v.v.v.S B g.:.p.n.X.m.| q.V ) Z - d 4 X.  7.A.2.",
"j.y.c 7.] x E ... G ) y w r.d 4 4 f D H 3 t 4 f v.v.v.v.v.v.v.v.v.v.v.v.v.v.z.3.H =.P q.V.e.3.X.u f e Z z e k u U R Q.E ",
"I R s s.  I E 7.a d o ..k ;.Z 4 < u q k Z y 3 * : 5 e W H N R %.k y.;.X.} d c :.t ' =.C.0.4.4.-.d e B u s 4 ! k Z b Y. .",
"& L d X.E O m.X d 9.[ c 4 ^ d : i u q M O c 3 * > u k u -.u J U d W u Z Q W k . o Z q.S ! X./ w.=.( S ~ d X.u E ..} 3.j "
};
