/* XPM */
static char *_c43b9dcb59a4a1ce5caeb163418685ftLr1X7qSnNLT0ST9[] = {
/* columns rows colors chars-per-pixel */
"60 50 187 2 ",
"   c #010000",
".  c #0A0503",
"X  c #0C0A05",
"o  c #0E0C0A",
"O  c #100402",
"+  c #120B05",
"@  c #130D0A",
"#  c #1A0D0B",
"$  c #141206",
"%  c #15120B",
"&  c #1B140D",
"*  c #1D190F",
"=  c #191207",
"-  c #161612",
";  c #1C1512",
":  c #1E1A13",
">  c #1A1B16",
",  c #210302",
"<  c #22160D",
"1  c #231A0E",
"2  c #2B1F0F",
"3  c #221612",
"4  c #241C14",
"5  c #2A1D14",
"6  c #241C19",
"7  c #2A1E1A",
"8  c #311E19",
"9  c #25200F",
"0  c #3F260C",
"q  c #262215",
"w  c #2B2316",
"e  c #252219",
"r  c #2C241B",
"t  c #2D2A1D",
"y  c #32261B",
"u  c #342A1D",
"i  c #3A2C1E",
"p  c #302115",
"a  c #37311F",
"s  c #2D2621",
"d  c #2D2A22",
"f  c #332521",
"g  c #342C22",
"h  c #3B2D22",
"j  c #382629",
"k  c #3C2C2B",
"l  c #353224",
"z  c #3C3225",
"x  c #3C3825",
"c  c #35332A",
"v  c #3C352A",
"b  c #3C392C",
"n  c #343926",
"m  c #323232",
"M  c #3B3532",
"N  c #3F3B32",
"B  c #471B09",
"V  c #41270B",
"C  c #44341F",
"Z  c #412F28",
"A  c #423425",
"S  c #483725",
"D  c #413A27",
"F  c #4B3927",
"G  c #42352A",
"H  c #443B2C",
"J  c #4B3C2D",
"K  c #4C372A",
"L  c #513C2D",
"P  c #443D31",
"I  c #4A3E32",
"U  c #553F37",
"Y  c #45412E",
"T  c #4D422E",
"R  c #5C5324",
"E  c #464234",
"W  c #4C4334",
"Q  c #4D4A36",
"!  c #46433A",
"~  c #4B443A",
"^  c #4C493B",
"/  c #524435",
"(  c #554935",
")  c #53463A",
"_  c #544B3C",
"`  c #5A4C3C",
"'  c #584C37",
"]  c #55513D",
"[  c #5C523E",
"{  c #604E3B",
"}  c #61533F",
"|  c #6C543E",
" . c #4B4741",
".. c #544D42",
"X. c #5B4C43",
"o. c #5C4C49",
"O. c #574746",
"+. c #555142",
"@. c #5C5244",
"#. c #55524C",
"$. c #5B544A",
"%. c #5E5A4C",
"&. c #5E5946",
"*. c #5F5D51",
"=. c #614C43",
"-. c #604F49",
";. c #635544",
":. c #645945",
">. c #63554A",
",. c #645B4B",
"<. c #6A5D4D",
"1. c #645C52",
"2. c #695D53",
"3. c #65614D",
"4. c #6D634D",
"5. c #70624D",
"6. c #646153",
"7. c #6C6354",
"8. c #6E6955",
"9. c #6C6359",
"0. c #6E6A5B",
"q. c #67645C",
"w. c #726553",
"e. c #796956",
"r. c #72655A",
"t. c #736C5B",
"y. c #7B6D59",
"u. c #776955",
"i. c #7F735C",
"p. c #736D64",
"a. c #7A6C63",
"s. c #767161",
"d. c #7C7262",
"f. c #7D7865",
"g. c #7C746A",
"h. c #7E7A6D",
"j. c #796F71",
"k. c #C02C19",
"l. c #C52726",
"z. c #D83E3A",
"x. c #E43834",
"c. c #9C6424",
"v. c #D5520D",
"b. c #CE6610",
"n. c #D16212",
"m. c #B14643",
"M. c #A94947",
"N. c #82745E",
"B. c #827564",
"V. c #837963",
"C. c #847D6D",
"Z. c #8C7D6E",
"A. c #887A69",
"S. c #867F72",
"D. c #FF9700",
"F. c #FA9B00",
"G. c #F1A203",
"H. c #FEBF07",
"J. c #F8BF16",
"K. c #FDC006",
"L. c #F6C40D",
"P. c #FAC109",
"I. c #F8D01B",
"U. c #F9CA26",
"Y. c #FFE633",
"T. c #FFE937",
"R. c #FFE73B",
"E. c #FEEA3B",
"W. c #F6E23A",
"Q. c #8D836E",
"!. c #85806D",
"~. c #90816B",
"^. c #8C8374",
"/. c #8F8974",
"(. c #928B7A",
"). c #938977",
"_. c #E3D244",
"`. c #FCEA42",
"'. c #F9E94D",
"]. c #F5E446",
"[. c #E6DA6D",
"{. c #9B9381",
"}. c #A19884",
"|. c #BFB6A4",
" X c #FEFCD7",
".X c #F4F4F4",
"XX c #F9F9F9",
/* pixels */
"I ,.J ` W e ; ' y l H b <.G w.d I P Q g * q r   . ,.j t P Y q ] 7 r   e r l v o.X.$...q A     - l r 6 u b v E ..$.@ g . ",
"G A r I i u g 4 q   i e >.. ) G Y   Q $.c b b   = z . e !   *.g Q 3.- M ) v s I f ~ 5 H G - U z [ r G ^ n J 8.v o v g r ",
"= i = h 5 A ' s H z H 1 ;.W [ T r s : t H d.w < ^ 4.E E ^ ^ g p.#.c   ; @ s > 7 P ; c O.G ~ '   l l t X @.] ! u u + A y ",
"7 {   h < f ` @ =.G ; [ e.w Z { z =.) k j O..   @.X _ 4 ] %  .l ..t   @ 4 v P d . .   .   e I t b c Q % % t   t . b y 5 ",
"F # A q 7 h # i z w I z y G y z 4 / 7 _ @.H Q . ..t g . n 0.#.> 1.b 6 c 6 c e $           @ p.t c o.+.I r j v . G  .7 @ ",
"S = z . ) T @ r q T y i 5 & w y ' 8.( y } ` d.+ E Q r k ` #.G       F.D.P.K.K.K.K.K.K.K.E.W.+   ^ J #.k 6 H Q P c ~ Y @ ",
"i . = 4 % i 5 A ;.u D h z :.A _ G g @.>.4.k ,.e I +.P $.% o.1.      D.F.H.K.K.K.K.K.K.K.E.E.. X P $.O.1.q y $.g g   y T ",
"S y / & J y / p u A J w g v G H g H ) ' I I A.y ] ' g H c -   J.J.J.R.R.R.T.E.T.R.T.T.T.E.E.`.]._.d ,.@.:.Y ) v r Q 4 e ",
"3 < h q S < U S i q i 1 w A X A ' y u ;.4 l ;.  T T t v b     K.K.K.E.E.E.E.E.E.E.E.E.E.E.E.E.E.R.  X p.v u H _ 7 * W I ",
"g 5 < & 2 & q ( 5 1 A i H i W ;.r i <.1 z y } X :.Q  .v 2.    K.K.K.E.E.E.E.E.E.E.E.E.E.E.E.E.E.R.    $.1.z G I / W   r ",
"r = i @ z   & / ` L T A v g ' I h i ' l r @ /   ) ..%   . K.K.E.E.E.E.E.E.E.E.E.E.E.E.E.E.E.E.E.E.    %...o.g t 7 I h s ",
"6 7 & # y @ S K A 5 w z h t g J T B.L 7.z 1 A . G P       K.K.E.E.E.E.E.E.E.E.E.E.E.E.E.E.E.E.R.E.    p.$.<.o v ; ~ H H ",
"* 4 3 5 1 y K & / r.H T ( 6.v J W ,.H T :.l h i W '       . O R.E.E.. .  X X X. . `.E.E.E.E.$ . . .X.XM t @ r & z t I e ",
"  y i y 4 & z 5 @.# H * +.5 v [ ) I H I i w u h I H           R.E.E.    XXXXXX    '.E.E.E.E.X     XXXXm     2.l 5 r y i ",
"H 4 6 e   & * q W $.W w 7.@.H ,.<.H 7.t T 4 . ) $.^           R.R.E.    XXXXXX    '.E.E.R.R.X     XXXXm     ~ P ! z g % ",
"@ a r @ I . h h 4 & g r .     . 1 g l * H u i z _ ..      E.E.      XXXX                    .XXXXX        . W h r t $ l ",
"4 @.H g H c r ) y.>.H 7.v /.B.~ l S H f f r y K z b       E.E.      XXXX                    .XXXXX          z z S u 4 ; ",
"H ` z ,.W ' i x A 5 W g b r Z.[ J 2 i H 7 h z d.@...      E.E.[.[.[.o o           M.m.m.m.m., o o         <   5 5 i 5 5 ",
"H z J ;.u b y D 5 J h W >.-.] H _ g # g u G #.H Z.d       E.E.E.E.E.              z.x.x.x.x.,             @ G S G r z h ",
"4 @.T l W z q J &   u g @ ;.i W T ) % ;.G ( I 8.J ;.      E.E.E.E.E.              z.x.x.x.x.,             @ & r g 5 z r ",
"@ + . G 1 i 4 4 A r & I h z 5 z G q o.#.4                 E.E.E.E.E.E.E.E.E.E.K.K.k.l.l.l.l.l.l.l.D.D.B     > I r S 5 Z ",
"v _ u l 1 i y 5 1 = O i u K + u S z 2.! G                 E.E.E.E.E.E.E.E.E.E.K.K.k.l.l.l.l.l.l.l.D.D.B     k g q y u q ",
". 7 w 5 S w 4 i & # H   y i : Z J z o.P  .R R R R R R R R U.U.E.E.E.E.E.E.E.E.I.I.b.n.n.n.n.v.v.v.c.c.;. .1.- A X 5 T X ",
"y   : 5 w 5 + & r u L A i i y ` ..$.1.    E.E.E.E.E.E.E.E.D.D.E.E.E.E.E.E.E.E.E.E.P.K.K.K.K.F.F.D.    a 1.j.G t y + z * ",
". a r   $ & :   < w L 5 + < A U 2.G 7.    E.E.E.E.E.E.E.E.D.D.E.R.E.E.E.E.E.E.E.R.P.K.K.K.K.F.D.D.    5 ^ Q I g : 4 r + ",
"h _ i 5 5 i u C 4 4 L 4 h r 3 } o     E.E.E.E.E.E.E.E.E.E.E.E.D.D.D.K.K.K.K.K.E.E.P.K.K.K.K.H.K.H.    <._ I u % u & q u ",
"H 5 A u z A F y q v 4 J h % 5 g       E.E.E.E.E.E.E.E.E.E.E.E.D.F.D.K.K.K.K.K.E.E.P.K.K.K.K.K.K.K.. + ^ u t H 3 5 @ y 4 ",
"h H 5 % 4 / u T 5 G & _ ) ` y / + + + E.E.E.E.E.E.E.E.E.E.E.E.G.G.G.L.L.L.L.L.Y.Y.P.K.K.K.K.K.K.K.O , r.9.~ 4 v u h u t ",
"z g I S + _ >._ E :   - e 4 X   T.E.E.E.E.E.E.E.E.E.E.E.E.E.E.E.E.E.E.E.E.E.E.K.K.K.K.K.K.K.K.K.K.D.D.B     @.w 3 u z z ",
"g P g - D X.t r $.@             R.E.E.E.E.E.E.E.E.E.E.E.E.E.E.E.E.E.E.E.E.E.E.K.K.K.K.K.K.K.K.K.K.D.D.B     a.H L u : @.",
"z H W H c g..   . D.D.K.K.K.K.K.E.E.E.E.E.E.E.E.E.E.E.E.E.K.K.E.E.E.E.E.E.E.E.K.K.K.K.K.K.K.K.K.K.K.K.V     W ` l 4 E h ",
"+.6 h Q + ^ 4     D.D.K.K.K.K.K.E.E.E.E.E.E.E.E.E.E.E.E.E.K.K.E.E.E.E.E.E.E.E.K.K.K.K.K.K.K.K.K.K.K.K.V     7.>.` 4 l v ",
"E 1.& g g l e   . F.F.K.K.K.P.P.'.'.'.'.'.E.E.E.E.E.R.R.R.P.P.E.E.E.E.E.T.T.T.K.K.K.K.K.K.K.K.K.K.K.K.V   X ,.= W 6.c n ",
":.^ [ <.w $.s     K.K.K.K.K.E.E.          E.E.E.E.E.D.D.D.E.E.E.E.E.E.E.K.K.K.K.K.K.K.K.K.K.K.K.K.K.K.V   s :.t.z W q b ",
"V.1.~ ..9.+.e     K.K.K.K.K.E.E.          E.E.E.E.E.D.D.D.E.E.E.E.E.E.E.P.K.K.K.K.K.K.K.K.K.K.K.K.K.H.V     t @.G E v 9.",
"I ,.e b %.6.^ ..#.    E.E.E.E.E.E.E.E.E.E.          E.E.E.E.E.E.E.E.K.K.K.K.K.K.K.K.K.K.K.K.K.K.K.K.K.V   X t r P ) P C.",
"*.^ ^ $.6.9.^ *.6.    R.E.R.E.E.E.E.E.E.E.          E.E.E.E.E.E.E.E.K.K.K.K.K.K.K.K.K.K.K.K.K.K.H.K.K.V   > ~ [ #.H b E ",
"t 1.^ 8.^ Q ! d ^ .   `.`.`.E.E.E.E.E.E.E.          E.E.E.E.E.E.E.E.K.K.K.K.K.K.K.K.K.K.K.K.H.H.H.P.P.0     :.I H W 0...",
"$.+.8.^ ..+.Y d M ] ~       E.E.E.E.E.E.E.E.E.E.E.E.E.E.E.K.K.K.K.K.K.K.K.K.K.K.K.K.K.K.K.K.F.D.D.    ) M  .] z G ` ] s ",
"] b t.#.#.l . $ b c Q o     E.E.E.E.E.E.E.E.E.E.E.E.E.E.E.K.K.K.K.K.K.K.K.K.K.K.K.K.K.K.K.K.F.D.D.    $.k <.=.g _ 0.6.z ",
"Q b ,.Y E s.b ] *.&.$.,.1.0..             E.E.E.E.R.H.K.K.K.K.K.K.K.K.K.K.K.K.D.F.D.D.D.          4.v ,.g y . H Y ] 9.G ",
"h.d.r.|.}./.q 0.W W o ^ y.X               E.E.E.E.R.K.K.K.K.K.K.K.K.K.K.K.K.K.D.D.D.D.D.          v 4 % r g ~ ~ ..! 8.+.",
") ,.W t.4.+.{.+.:.V.N.X.h 2.-             R.R.E.E.E.K.K.K.K.K.K.K.K.K.K.K.K.K.D.D.D.D.D.      r   . . z @ . G 6 7 l t X ",
"V.^ (.4 0.z S.9.t.f.( /.;.I   P H y w.6                                                 d.d.(.a.b z i g I G @...3.u.i.w ",
"^.7.^./.^.t t.{...C.3.~.v y 7.9.! I ) .                 o . @ @ .                       ,.w.W ,.c X u A 5 _ % I ,.@._ :.",
"6.s./.+.t.f.S...w.W   g [ 5 g + k 1.h               q.1.g w.$.1.#.@._ e.                Q.p.A.d.r ,.X.c t 5 b h I ~ 0.t ",
"+.h.h.d.+.b s.C.6 W v t c E I _ H ..G           . . r.^ ' H r _ H @.z 1.                Q.@.B.@.w.A ] G & g 4 ;.  t.S.3.",
"h.t.v 8...l ^ +.. I ] u r w.h 5 4 h J o         . w g ) W A W X.O.) @._ . .   .         ^.V.4.X.u g u G z t h u Q W {.^ ",
"~ ~ g p.  E ^ 8.d g o +.z ,.G 5 1 u 5 G I v h s M t r / I G I ,.z t.:.@.$.M W y.9.).^.{.7.e.5.;.g y S u f 5 ) z z E /.] ",
"@ Y u @.) + N.X g 0.O.v 5 _ f ; i u w v O b 5 M e g h u :.u I W g ( g A ) / z . o I r.J ' @.[ r.:._ J ) g @.u ) +...4.c "
};
