/* XPM */
static char *_1ef60df91a7444bf1394a0d93464b24imiMErRtlSU2OIlZ[] = {
/* columns rows colors chars-per-pixel */
"60 50 184 2 ",
"   c #030201",
".  c #0A0403",
"X  c #070904",
"o  c #0B0A05",
"O  c #0F0B09",
"+  c #100707",
"@  c #120B06",
"#  c #180C07",
"$  c #140D0A",
"%  c #1A0E0A",
"&  c #131106",
"*  c #191207",
"=  c #15120B",
"-  c #1B140D",
";  c #17180F",
":  c #1D190E",
">  c #1C0F10",
",  c #171711",
"<  c #1B1512",
"1  c #1E1A12",
"2  c #22160C",
"3  c #221A0F",
"4  c #2B1F0F",
"5  c #211612",
"6  c #241C13",
"7  c #2A1E14",
"8  c #261D19",
"9  c #2A1E1A",
"0  c #301F17",
"q  c #311D1A",
"w  c #252115",
"e  c #2B2216",
"r  c #252319",
"t  c #2C241B",
"y  c #2D2A1C",
"u  c #302216",
"i  c #342A17",
"p  c #32251B",
"a  c #342A1D",
"s  c #3A2C1E",
"d  c #3A301F",
"f  c #2C1A20",
"g  c #272720",
"h  c #2B2521",
"j  c #2D2A21",
"k  c #332421",
"l  c #342C22",
"z  c #3B2D23",
"x  c #382629",
"c  c #372B29",
"v  c #3C2D2B",
"b  c #353224",
"n  c #3C3225",
"m  c #363926",
"M  c #3B3926",
"N  c #363429",
"B  c #3D342A",
"V  c #3D392C",
"C  c #3F3C30",
"Z  c #44341F",
"A  c #402F22",
"S  c #412F2D",
"D  c #423425",
"F  c #493626",
"G  c #413927",
"H  c #4B3A27",
"J  c #42352A",
"K  c #4C372A",
"L  c #443A2C",
"P  c #4B3C2C",
"I  c #503C2D",
"U  c #433531",
"Y  c #493531",
"T  c #443C31",
"R  c #4B3D32",
"E  c #533F32",
"W  c #533F3C",
"Q  c #3F412E",
"!  c #45412E",
"~  c #4C422E",
"^  c #51402E",
"/  c #454234",
"(  c #4C4334",
")  c #4E4A37",
"_  c #474438",
"`  c #4C4439",
"'  c #4C4A3B",
"]  c #524535",
"[  c #584635",
"{  c #544A35",
"}  c #5A4A36",
"|  c #53463A",
" . c #544A3B",
".. c #5A4C3C",
"X. c #55513D",
"o. c #5C503B",
"O. c #5C523E",
"+. c #614A3F",
"@. c #62533F",
"#. c #4F4D41",
"$. c #4F4E40",
"%. c #554542",
"&. c #5A4543",
"*. c #544D42",
"=. c #554E43",
"-. c #5B4C42",
";. c #5D4847",
":. c #5B4F45",
">. c #555241",
",. c #555143",
"<. c #5C5343",
"1. c #5C5544",
"2. c #5E5A45",
"3. c #5E5349",
"4. c #595649",
"5. c #5C5549",
"6. c #5F564B",
"7. c #5D594C",
"8. c #5F5D50",
"9. c #624E41",
"0. c #604A44",
"q. c #604D49",
"w. c #625444",
"e. c #635843",
"r. c #645A46",
"t. c #6A5B46",
"y. c #63554A",
"u. c #64584A",
"i. c #645B4B",
"p. c #635A4F",
"a. c #6A5C4C",
"s. c #715E4D",
"d. c #6A5451",
"f. c #635D51",
"g. c #6A5C52",
"h. c #705D56",
"j. c #65614E",
"k. c #6C634D",
"l. c #72634E",
"z. c #646153",
"x. c #6B6354",
"c. c #6E6855",
"v. c #686558",
"b. c #6B6559",
"n. c #6E6A5B",
"m. c #706751",
"M. c #726553",
"N. c #796754",
"B. c #726A54",
"V. c #786A57",
"C. c #7A6D56",
"Z. c #74655A",
"A. c #7B645E",
"S. c #736C5B",
"D. c #7B6C5C",
"F. c #76715F",
"G. c #7E735B",
"H. c #746D62",
"J. c #796D63",
"K. c #757263",
"L. c #7B7364",
"P. c #7D7865",
"I. c #7B766A",
"U. c #7E7A6C",
"Y. c #81745E",
"T. c #827563",
"R. c #837A64",
"E. c #8B7D66",
"W. c #827568",
"Q. c #857D6C",
"!. c #8B7C6C",
"~. c #827F72",
"^. c #897E71",
"/. c #85806D",
"(. c #8C866F",
"). c #868376",
"_. c #8D8473",
"`. c #8F8974",
"'. c #908775",
"]. c #918A74",
"[. c #928B7A",
"{. c #9B9382",
"}. c #A19884",
"|. c #BFB6A4",
/* pixels */
"R u.P o.( w 5 ..p b L V a.J Z.j P T ) l : w t     i.x y T / w X.6 t   r t n n 3.-.3.=.6 D     , l w w a V B _ #.7.$ l . ",
"J M e R l a l 6 7   a r y.. | J !   ` 4.N V V . # M . w _   7.c ( 1.  6 b l 9 R k _ 7 L J < W M ..t V ` m L m.V $ n c t ",
"* s * l 7 D  .p J M L 3 e.( ..~ t t 1 y G L.e : ' k./ / ' ' l ,.C j   m l z.z B ,.t / A.R ' ..  b b j O 4.,.( a i + G p ",
"0 +.  z 5 k } $ 9.J < +.V.e D -.n 0.| B x &..   ,.$ ' 6 X.= ` j _ t   1 J g.Z.b.:.q.. ( V l L y V B ) = $ t   j . V p t ",
"H % D e t n # l d y P M p J p n 8 ] t  .1.L _ + ,.y l . m v.#.X 3.M 8 3.v f.B t Z.| n | J V z e V ;.,.R t c n O J %.8 + ",
"F * n   | P # t e ( y s 6 < e t ..x.[ t e. .L.@ / ) t c ..V 9 c U B k ..' d.=...y m J r a J 6   ` R ,.v 6 L _ L N _ / + ",
"s o * 6 # s 7 D w.k G z F r.D ..G a 1.y.a.B y.r ! ,.T %.= R y.8 t ( %./ R z.f.( R R V   r U 8 M n.' &.f.7 i y.l l   i ^ ",
"D i ] - ( t [ e i D L e a V J G c G ..[ R R E.p X.[ t T 1 V L U J V   ( < ( ' 1 z l p t a ' a   l ,.S.,.p.L | V t ' 1 r ",
"5 < z 7 H - ] F s w s 3 e D o G } p a <.6 z e.  ~ G e V t f.# Q y./ / (   R j 8 l G w - =.. ' N | / R | M k J  .9 , ( T ",
"z 7 2 - 7 * e [ 6 4 D d P s ( 1.t s a.3 n p O.O u.] t N x.z.N a f.J %.m ,._ ,.Y & l V V M t b g o ' : `  .z L R [ ( . t ",
"t * s + n   2 ^ ..I ~ n n k ../ z b } d t $ ]   ' ( c V & ; U.T < #.v ,.L ' z.8 =._ 6 B h k g   b R y i w =.b t 9 ( a j ",
"8 9 - - p # L H A 7 e n n t z P ~ T.( x.n 2 G . J D a   k ).j.i.7.N U r  .m /  .R   ( r t _ B X c.b y.t a ..O n < ` L J ",
": 6 5 7 6 p K - ] Z.! ^ ] z.B L ( a.V ~ r.d z k ~ ( R n.O.!.2 m.y.S.C.j / 8 ( 2.b.= 1 b %.  Q o U.T - ` P = 8 : z y T r ",
"  i z p 6 % n 8 3.% L : O.w J O.| R G R a t i n R V w a 1 B ..Z.S.S.Z.t y O ,. .K.&   - J ' 7.  9 ( =.t L 6 E b r t i z ",
"J 6 8 w   ; : 7 ( 3.( e z.3.P u.k.P z.a R 3 . | 1./ G O e.o c Y.b.,.x.6 4._ / C _ M l n | J X.M W.R 6 i a = L R ` N z @ ",
"# b r $ R . z z 6 - l r .       3 k b 6 P a s n  .' T =.l M l 2.P -.t.e <   6 %.R = ..' X.) y y t : R m z 6 R z t t * b ",
"6 e.V l G B 9 | V.u.L h.V ].W._ b J L s k t p K s t ( ..b J d.7 m y.t.O.l | ] i.z S.y. .=.m.c ) P &.  J O.. D n J a 5 6 ",
"J ..b a.( ..l G J 7 ( j V t !.O.L 4 s L 9 a m } L a J 6 9 T ] L { [ m.t.y |   . X.,.M y b ` 1.b.J w.] n z z   7 8 s 7 7 ",
"R b P r.a V i M e G z ( u.q.X.P  .c % l a p a J a.# + ..a M R G | e.1.! N =.k . r a : R N f.a.L t t.] w s 2 J J F t n z ",
"8 O.P l ) n e L * . s p O r.a ( ~ | = -.z ] ( l.L @.a V < < l = ( ~ ) U.n z . ' L X.r v h L m k -.z w.+ ] 3.% t a 6 n w ",
"+ . O V 6 A 2 e J t - ( z n 7 n G e R B 5 5 - '.6  .C.t l n a.C P G ;.,._ r m _ 7.C =.j _ 8 .   n r.P k.- l @ L t L 7 D ",
"V ..p z 6 i p 6 3 # + s a K # p F a R n B z 6 r.m.V O ` 8 . D , ] Z.{.O.U.R ,.b c V _ / ' z.j Y L L k.] . [ t l e p i 7 ",
". 9 e e F e 7 p 2 $ G   p s 5 A G e A 6 8 p a p ..( c.< [ ` 7.X.r : B.D.b.i.z.k.x.= ' 9 9.N N M o ( |  .o m.o D O 8 ~ o ",
"i   3 6 e 6 # - t s P D s s p } p t 3 7 7 k 8 z L ..O w 3 ` o.  a._.T.N =.t w  .7.t 1 z ( X.z.c z.( X.i =.5 c p e # n : ",
"  b t   # ; :   5 u I 7 + 3 z A E p } K 6 P w j s 7 ( L w.a  .J . i | R / T 1.z L *.. L | 7 1 u.F.u.,.6 _ ( G c 1 6 t * ",
"z ..s 7 w s i Z 6 6 P 6 z e 5 @.8 3 w J E ] D 9 n 2 I n l O.n R { % R  .].t l / ] t t ..j.r a : k.x.L.a. .! e * a = e p ",
"J 8 D a D M K i w n 4 P z * 6 e s ` p z b s p t ( J e 8 L n L Y.a J z ( 1 6 : r.L n 6 9 a ,.Z.l t.C y L 8 w V 6 w % t 6 ",
"z L e * 6 [ t K 6 p $  .] | p D p D K ..V K e l * ] O.} e.% t.s.r.$ z p N t e.L % w.[ < M 2.O.P.,.i M g.1.T : n a n k i ",
"M l ! L @ L D ] b P o  .0.} a n 7 P i e a z G   D : ( { P e.  +.G u O.w ] 6   D 9 G.b P P n 1.P  .,.{ ( | P | e 5 a n b ",
"l J z < n | t 6 b p.k.e.=.m.< t [ t L t.P D ~ ] V i 2 | d ..( ^ l @.6 w.w.Y.i 7 L } J = ] c 3 =  .V O.G l.-.g.G I a 6 3.",
"M L ( L n J j r k.t <.,._ u.R n u.X J ] J b  .s ..L ( -.t.n ..e.w.i ] L 4. .] w ( | | M.t ) ..L 6 u.K.< l z ( | b 3 ! c ",
"=.8 b ( $ L <.L J ,.2.4.H.( b P x.T t ( R t L s.w.a D e 6 J t K b t [ = . ` D  .L J x.( S.F.V 1 =._ ( n . n e.p.-.6 b V ",
"/ f.: k a b T C N _ B.y n._ 7.I.  W.O m - V R ` L k 6 6 @ e 4 - a J . p * R D | ( <.X.` K.X.<.` x.x.z 4.( J O.= ( z.V m ",
"y.] O.k.t 3.( _ 7.z.C 7.L.y.< R _ 6 } y z w P =.` = n O.6 u 7 D M D  .] G + z O | ] n n y ; ] ( ( c -.4.a O.O.F.m ( 6 V ",
"R.t._ =.z.4.T $.2. .,.G i.  O c 9 R t b B 3.z n.R w.R ( e 7 6 K n l G R + <.L z V P ' T 3.w.V =.a.6 R | L . * O.J / B b.",
"T f.r V 7.z._ / $ >.H.4.,.m 7. .y V t Q., # R L B =.J 6 ..6 s p I l c 6 P ( ..z y.n <.m ,.O.| { g.E t n ( 6 6 t L | T Q.",
"8.' ' 3.z.b./ 4.' R V.7.3.y.z.V w i.4.=.' V y 8 C V z L n 8 * 3 D n y ..F 6 V. .M b | P ` w u.8 ' w r ( x.( V O.4.L C T ",
"j f.' b.' ' ` l y J R._ L.y.N I.u.T l =.r u.N l 7.L . 6 e / ..=   e J 6 P P ..L i.( G ` ,.d.y N S.` z c b =.[ L L ` S.#.",
"1.,.x.' =.,.V j T ` L 4.S.z.I.c _ X | 1 T L R B V p L p X - ! K . 7 D F i = l i M p P  .y.)   l.I.6 ` R # t ' n B .. .j ",
",.V S.4.4.N   & M N ( g.' 1.,.j t N %._ R ..B ( J R [ e [ ~ H s p s i K e G o t z J e t ` / _ K ) ( O.T t a.@.c  .n.z.n ",
") V u./ / L.M ,.7.7.4.X.f.j.j G b V T V.R ` t ' ..| [ n } f.} 6 n D p i % M t i p D z C  .l P | ( t.e ( l p   L ! X.v.J ",
"P.L.Z.|.}._.r n.( R + / s..   X   X 9 = =   . J R i k -.B   K z p 6 9 ] 2 z 6 s t T u.( } R ' M c B 6 @ t l W _ ' ` v.O.",
"` f.( S.k. .{.X.i.R.Y.4.k | 6 z.p.I t.0.= | P G l n  .t.u.5 D J F 6 6 I p b | P P 7 s   3 8 % k       z # . D 8 q N y o ",
"T.| [.6 S.m ).v.S.R.{ `.w.R . C V p M.z z c 6 a G 7 | w ..t n P D 6 : G n [ r.u.y.C.E.t.S.J.[.J.M B i z ( V 1.=.j.V.G.t ",
").z._.]._.t H.{.=.Q.t._.J i u.i.6 S ( t ..B # # n D T 3.r.p n P 6 G n s G R  .e.2.E.B.I.=.m.( ,.m . l n 9  .= / u.3. .u.",
"z.L.].,.H.P.Q.=.M.(   a <.w c O % | z   6 k J 7 < ( l 3.w w.] ( @ ] ] N...i R _.( a.L.S.E.S.T.D.y r.=.B t 7 B z R / c.y ",
"2.U.U.L.1.M K./.8 / B j V / ( [ L _ J D y t = = 6 = u.%. .J t ..L =.b u.q.,.y H G Y.a.F.T.<.W.,.m.J O.J : a 7 9.  n.^.j.",
"I.S.G x.#.b ' ,.. T O.t e B.l 7 6 p E P 6 p 7 z 3 i l ' R G ( =.-. .| ] -.G ] k.R u.K Z.E.C.m...p z t M V a m a ( ( {.' ",
"_ _ l H.  / _ B.j k $ 4.n 7.G 7 6 s e n D p 6 - < 9 t [ R M ( y.m V.u.<.=.l V a.p w.a.E.x.m.l.r.l t J i k 8 { n n T `.,.",
"# ( k ,.| O Y.o b n.=.n 7  .k - s i t v + V < : 6 a z a y.a I ( k | a G [ ] G   . J l.L } -...V.u...P [ l 3.i ` 4.=.k.b "
};
