/* XPM */
static char *_e16287d9f374c45abf3325c5df600eeauiXf3yBmHiRbe46[] = {
/* columns rows colors chars-per-pixel */
"60 50 252 2 ",
"   c #010102",
".  c #02000C",
"X  c #0C0806",
"o  c #130C0A",
"O  c #150D06",
"+  c #1B140D",
"@  c #19160C",
"#  c #040013",
"$  c #05011B",
"%  c #0C0618",
"&  c #130C17",
"*  c #1C1618",
"=  c #231B14",
"-  c #2A1E14",
";  c #261C1A",
":  c #291A13",
">  c #2B2316",
",  c #2C241C",
"<  c #28251A",
"1  c #332B1C",
"2  c #35271C",
"3  c #070023",
"4  c #0A0123",
"5  c #0B012B",
"6  c #08052C",
"7  c #160926",
"8  c #1C1628",
"9  c #0D0133",
"0  c #0D013B",
"q  c #090A35",
"w  c #12013B",
"e  c #150535",
"r  c #1A1435",
"t  c #261A28",
"y  c #281837",
"u  c #341B35",
"i  c #281136",
"p  c #2B2324",
"a  c #2C2629",
"s  c #322422",
"d  c #342C23",
"f  c #3A2C23",
"g  c #32262A",
"h  c #342C2B",
"j  c #3A2A2C",
"k  c #343224",
"l  c #3C3325",
"z  c #3C342B",
"x  c #393629",
"c  c #2B2438",
"v  c #372838",
"b  c #3C3537",
"n  c #402F28",
"m  c #42352A",
"M  c #433A2D",
"N  c #473928",
"B  c #433B32",
"V  c #4A3E33",
"C  c #453638",
"Z  c #4D3838",
"A  c #47412E",
"S  c #4B433A",
"D  c #494538",
"F  c #53463B",
"G  c #5A4C3B",
"H  c #54483A",
"J  c #58523D",
"K  c #0D0244",
"L  c #08034A",
"P  c #120244",
"I  c #14024B",
"U  c #1A024C",
"Y  c #180545",
"T  c #150254",
"R  c #1B0253",
"E  c #15025B",
"W  c #1B025C",
"Q  c #170F53",
"!  c #1C1856",
"~  c #150E4F",
"^  c #26064A",
"/  c #291746",
"(  c #351B48",
")  c #250359",
"_  c #261856",
"`  c #361857",
"'  c #2B2547",
"]  c #3C2C44",
"[  c #382747",
"{  c #393348",
"}  c #2D2659",
"|  c #372758",
" . c #3C335B",
".. c #1C026B",
"X. c #190365",
"o. c #1D0274",
"O. c #1C037B",
"+. c #170478",
"@. c #19136F",
"#. c #23036C",
"$. c #290469",
"%. c #350869",
"&. c #281965",
"*. c #371668",
"=. c #240374",
"-. c #23027D",
";. c #2A027C",
":. c #2A0676",
">. c #360578",
",. c #27177A",
"<. c #37167D",
"1. c #2D2667",
"2. c #372867",
"3. c #383169",
"4. c #2A2378",
"5. c #372878",
"6. c #3A3478",
"7. c #451C5B",
"8. c #452A47",
"9. c #473747",
"0. c #52374C",
"q. c #472A56",
"w. c #483656",
"e. c #543855",
"r. c #532D59",
"t. c #4A1777",
"y. c #491670",
"u. c #462B68",
"i. c #532867",
"p. c #453A65",
"a. c #573567",
"s. c #432976",
"d. c #473979",
"f. c #593578",
"g. c #582B78",
"h. c #65367C",
"j. c #623A69",
"k. c #4C4747",
"l. c #534D42",
"z. c #574A49",
"x. c #555143",
"c. c #5C5343",
"v. c #5C564B",
"b. c #4E4655",
"n. c #594658",
"m. c #5B5658",
"M. c #64594B",
"N. c #665B57",
"B. c #664F51",
"V. c #6B6557",
"C. c #726959",
"Z. c #706851",
"A. c #494367",
"S. c #574569",
"D. c #534A79",
"F. c #664864",
"G. c #6B5D68",
"H. c #745A75",
"J. c #6C5074",
"K. c #766767",
"L. c #7B7566",
"P. c #7C6A74",
"I. c #827A67",
"U. c #837473",
"Y. c #83715E",
"T. c #8D8674",
"R. c #8E8774",
"E. c #1A0387",
"W. c #1A0598",
"Q. c #130E8C",
"!. c #230483",
"~. c #2C0384",
"^. c #2C038B",
"/. c #25048B",
"(. c #3D038D",
"). c #350587",
"_. c #251885",
"`. c #361988",
"'. c #270598",
"]. c #340594",
"[. c #3B0295",
"{. c #37049C",
"}. c #271797",
"|. c #351698",
" X c #2B2687",
".X c #372887",
"XX c #3D3484",
"oX c #292496",
"OX c #332896",
"+X c #3A359B",
"@X c #1907A8",
"#X c #1906B9",
"$X c #1810AB",
"%X c #2705A6",
"&X c #3907A8",
"*X c #2615A8",
"=X c #3617A6",
"-X c #2808B8",
";X c #3606B8",
":X c #2512BA",
">X c #3815B4",
",X c #2F25A7",
"<X c #46068A",
"1X c #540C89",
"2X c #481686",
"3X c #58198A",
"4X c #470597",
"5X c #540799",
"6X c #481598",
"7X c #571699",
"8X c #462487",
"9X c #5B2885",
"0X c #463986",
"qX c #4E2E93",
"wX c #692D92",
"eX c #4305A4",
"rX c #4806A9",
"tX c #5707A7",
"yX c #4918A6",
"uX c #4404BD",
"iX c #4B04BC",
"pX c #4809B6",
"aX c #5305B4",
"sX c #5806B9",
"dX c #4812B6",
"fX c #5516B0",
"gX c #640AAA",
"hX c #6916A6",
"jX c #6507BA",
"kX c #6814B5",
"lX c #7510B8",
"zX c #4B27A8",
"xX c #512BA8",
"cX c #6826A6",
"vX c #53448C",
"bX c #6B478B",
"nX c #785794",
"mX c #1B08C3",
"MX c #140BC0",
"NX c #2709C3",
"BX c #380AC4",
"VX c #3915C1",
"CX c #2413C6",
"ZX c #4709C4",
"AX c #5709C4",
"SX c #5619C1",
"DX c #6908C4",
"FX c #7708C4",
"GX c #7B11C0",
"HX c #816C8A",
"JX c #9A9381",
"KX c #B0A794",
/* pixels */
"V M.N G H > = H 2 k M x N.N C.a C { k.c r r c 6 q A.` _ s.s.*.g.` ( 5 ( u C n F.0.B.e.2 j     @ d < < 1 x x D H v.o d X ",
"m m 2 A 1 1 d = -   1 - v.X k.b b $ k.b.c { { q e } w _ s.W qX2X3X9X^ ( 8.7.u 8.j 0.u Z C = Z N J p z D x M V.x o k k < ",
"O f O 1 : n G , m l N = M.Z l.V p c r c { vX! ~ 3.d.5.5.s.8X<.7X7XtX4X1Xy.h.7.7.e.u 8.Y.0.0.z.X k k 1 X c.J D k 1 O n 2 ",
"> G   n = s G o c.n * z.V.p v b.' p.1.1._ 3.L L 6.~ 3._ s.$.s.`.7XsXsXgXgXwXwXU.j.j.7 r.8.C 8.s b x H @ o <   1 X l 2 > ",
"N + N > > f O 1 k , B z p { / ' ~ 3.! 3.6.1.1.E 5.1.&.W 5.qX8X$.qX7XjXFXFXGXlXt.bXj.8.r.Z 8.u u b z.l.V , h l X n k., o ",
"N @ f   H V O 2 , V p v 8 8 r ' A.A.3.@..X X+XQ.}.|.:._.8X`.<.`.6X6XtXFXlXFXFXFXhXy.y.u 8.8.i % w.9.l.z < z D B k D N o ",
"2 X O : o 2 - N z.v b c { b.[ w.} @.6.OXOX_.,XW.:X:XBXBX;XdXyX(.<X7XgXjXgXlXlXlXGXgXt.7.7.8.i 8.J.0.e.N.- 1 M.d k   1 A ",
"N 2 H + V 2 F - g b b a c } } | &.,. X X4.4.zX}.,X|.}.%X;XBXpXyX6XaXtXjX5XgXgXjXlXlXlXt.7.i.8.7 [ n.G.z.M.M H z < H * < ",
": + 1 - N = Z C g t v r y | L 4.`.,.,..X@._.|.@X*X=X%X-XBXZX;XdXdXaXAXDXaXgX5XgXjXFXjXgX7X^ a.[ w.w.9.k.j s B G ; + D M ",
"2 - : + = + , F t t v v  .` 3..X,.,.,X@X-X#XNX#X-X-X-XBXBX;X{.uXAXAXAXDXDXAXjX<XgXjXDXtXgXt.2.' e e.i 9.k.j z A H S X , ",
"> + 2 O l   = Z e.0.9.` &.&.5.`._.'.:X%X-X#X-X#X%X/././.'.%X&X].eXpXrXaXaXsXDX5XtXjXaXjX6XtX*.Y [ w.c c y z.d d ; F 1 2 ",
"- - + + 2 & C 8.v y / | | %.4..X XzX;XNX%X%X%XW.E...O.o.#.~.].&X{.&XeX4XrX5XaXaX<XaXsXAX6X7X2XU wX| a.c c z.o h + S M z ",
"+ = = > : g 8.7 w.J.w.u.u.0X`.`.=XuXBX-X-X%X'.'.O.-.!.!.=.~.~.~.~.).).>.(.[.aXsX4XrXAXAXyX;.6X$.bX .i w.0.& , * l , B < ",
"  1 2 p ; 7 C y a.r q.) d.].&XyX>X=X;X;X%X%X%X/.!.o.o.O.o.!.;.;.:.) ) :.).(.rXiX4X[.uXuXyX6XyX-.*.3.A./ b y 9.h , , 1 f ",
"m = ; , # 7 t y w.f.u.*.fXyXyXyXyX&XVX&X'.;.-.o.o...o.I X...X.#.#.U ) #.:.(.[.eX&X[.uXuXdX|.6X>XvXu.i / c 8 C C S k k o ",
"o k , o 9.7 8.( / ) y.`.).;.!.{.BX;X&X/././.!.o.T P R I I I W U T R ) U ) -.~.).~.;.&X&XZX=X`.%X,.Q 2.| [ r C v p p O l ",
"= c.z v 9.[ u p.J.f.2XcX6XcXSXuX{.~.^.^.^.-.o.W T K I 5 P I I w w U R R P =.$.;.=.~.].&X;XdX|.>X`.s.K 2.b.4 v b C s = = ",
"M G l B.9.e.[ 8.u.*.6X6X6XpXAXeX[.).~.#...R I R w I 0 0 9 5 w 9 9 w I U Y W =.X.) =.'.'.-X*XOX>X_.d.2.&.' [ # t ; d - > ",
"M z Z m.v q.u q.` 5X5X6XxXAXiXrX{.^.#.R R U T 0 w K 0 9 3 4 9 5 5 9 9 U 4 W ....E o.W.!.-X>X=X$X,.0X5.! ( r ] v C t k f ",
"; J C v 9.v i u.%.[.6XaXZXAXiX[.).:.) #.=.W I w 5 4 5 4 3 # $ $ # 6 4 5 4 I ..o.E ../.E.#X*X$XW.}.,..XT w.A.r t v : l < ",
"X o % ] t 8.i ` 2XrXrXsXiXiX[.).>.:.#.=.X.W I e 5 3 # $ # # # . . 3 5 4 9 I T E T O.E.E.#X#X#XW._.OX_.XX~ ' 6 { p m > n ",
"m G a v i v ( ` 4XeXiXdXiXeX[.&X{.#.=.=.W P 0 9 $ # . $ . . . . . # # . 0 0 I T K +.W.W.@XNXMX#X$X_.+X Xq w.c c t p 1 - ",
"X , t y 8.y / *.{.iXpXrXrX].rX;X].~.~.T P $ 4 4 # $ #   . . . . . # . $ 6 9 9 T T O.E.E.@X#XmXMX@XoX X XL D.q ' % t V X ",
",   ; y y y i $.rXZXZXrX).&X;X&X^.-.o.w w R 0 4 3 # . .         . # # # 3 3 K K E +.+.W.W.@X@X@X#X_. X@.3.Y } c a & l @ ",
"  z t $ 7 r / ..;X;XuX{.{.;X;X{.{.-...I E K 0 6 $ .   .         . . # $ 9 K K I X.X.+.W.W.@X#XMX,XoX X@.3.1.} ' * 8 p O ",
"j F v t t v ` <.;X;X&X].;X%X%X^./.o.T E T K 5 # # $ .           . . # 4 9 9 9 0 L X.E.E.Q.@X#XMXoX+X+X X6.1.! 8 a 7 < 1 ",
"N ; v c v ] | <.;X;X%X%X;XNX-X!.o.E E X.T 0 6 3 $ $ . .         . . . 4 5 9 K P E +.+.E.Q.MXCX#X X4.Q. X! ! ' 8 t * , = ",
"l B t * 8 w._ _.-X;X%X'.-XBX-X%X'.O.T T I 9 6 9 5 . # . # . . . . . # $ 9 9 9 I ..X.E.X.E.@X#XCXoXQ.Q.XX6.3.q b c v d 1 ",
"M d b b & { } `.-XNX#X%XNXNXmX-XW.E.X.+.E T L 0 3 $ # . # . . . % . 4 5 5 e I I E !.!.O.E.W.NX}.$XoXoX1.1.1.b.8 r a k l ",
"k b h 7 b w.! Q.#X-XNXNX:XNX#X@X@XW.+.O.X.E L 9 9 4 3 $ # # # # . $ 4 9 U I U X.o.o.o.O.W.NXW.Q.$X$X X1.D.3.D.{ 9.h * c.",
"l M S b h { ! @.CX#XmXCX*X:X#XNX@XW.E.+...E K 0 9 9 5 $ # # $ 4 4 % 5 4 9 R #.#./.-...'.NX-XoX*X$XoXvXQ } ' { b.c * A d ",
"x.* a k.& { p.4.$XCX*X*X,X*X$X#XW.E.E.E.+.X.I 0 K 0 P 4 5 4 . $ 4 9 5 w w R #.:.;.;.{.;XBXVX*XMXoX X4.! L ' A.A.b.; k x ",
"D M.* a k ' } 4.$XMX,XQ.+XoXMXCXW.@XE.+.+.+.X.T I w I 5 9 e 4 5 w e Y ) R ) ;.;.).].&X;XBXNXBX*X+X0X_ 6.3.{ p.6 D m.x x ",
"M.H x.m.< A. .3.,X$XQ.oX+X,X$XMX#X#XE...O.+.o.R I I Y 9 w w w 4 e ) ) ) $.Y ) ~.].&X].;X;X;X>X`.4.1.s.6.' 3.p.G.b B * B ",
"I.M.S k.V.b.{ 3.oX$XoX4.oXQ.MXMXmXNXW.+.O.!...=.U $.Y U U R ) ^ ^ Y w ) ) ) ;.(.&XeXZX>XVX>X|..X0XW 4.u.1.L r b.b D x V.",
"B N.< b m.m.{ 1.@.oX,XXX X_.CXMX$X-X%X/...=.!.~.#.;.#.^ U $.$.:.$.) $.$.>.$.[.eXpXiXdX;XzX6X8X5.qX.X&.&.3.r 8 p b D D I.",
"v.J D m.m.V.{ 3.4.4.+X.X6.XX,XMXW.,XBX%X'.;.{.^.;.>.~.>.^ ) $.$.$.>.).(.(.[.(.eXiXuXdXdX|.>.qX&..X,.=.5.D.w.v c.x.A B B ",
"< N.D V.k.k.k.' ! 4.vX XvXXX_.VX=X|.NX&X;X{.].{.eX).[.(.%.) ^ >.>.>.<X(.4X<XrXaXAXsXrXrXyXzX).`.zX`.,.} ' k.l.B x D C.J ",
"v.x.V.D l.b.B c } 6.1.5.vX0XvX}.;XW.=XBXZXZXeXeXeX4X<X<X(.(.%.>.<X<XrXaXaXaXaXAXAXZXAXZXfXyX'.dXxX_.s. .& t k.d B G J p ",
"J M C.v.x.k X & ' 1.3.A.6.6.6._.%X|.6X=XZXZXeXeXaXrXrX4X<X<X5X<Xt.<XtXsXaXaXiXaXaX4XrXZXAXZXdXpX8Xs.w.] g M.c.f G V.V.k ",
"D A V.D A L.b l.m.A.6.A.d.D.! 4.}.[..XqXyXSXaXsXAXjXjXjX5X<X5X5X5X4X<X<X<X5X4XeX4XrXaXaXAXiXdX8Xu.S.u k.g s X m A J V.M ",
"L.L.C.KXJXR.< G.{  .q 3.S.L L ~ E /.>.$.$.[.&XsXDXsX5XkXDXaXjXtXDXjXjXjXsXtXtXtX5XsXAXAXAX7X8X| [ [ * & p d S S l.D Z.J ",
"D V.D C.V.J JXl.v.P.G.A./ p._ d.f.s.qX9X%.8XaXsX6XtXkXcXhXsXjXlXDXjXDXDXjXDXDXDXjXDXsX4X).*.^ [ 4 % . j & X n = , k < X ",
"I.D R.= C.k T.V.C.K.b.nXn.8.e 2.| *.qX2X2X2Xt.1X3X2X7XtXhX1X1XhXgXtXjXjXjXDXDXFXDXkXcXwXbXJ.HXH.b n j g V l v.l.M.Z.L.< ",
"R.V.R.R.R.< C.R.x.P.m.P.[ c F.S._ 7.s.*.g.3X>.%.2Xt.3XcXlX3X3X7Xt.7X5XhXhXgXkXjXhXnXJ.bXe.G.0.z.b % g z - G @ A M.c.l.M.",
"M.L.R.J L.L.T.l.Z.S . h b.y v 4 r u.` P ^ 7.t.y.%.9Xy.h.y.hXhXhX<XhXlXhXhX1X3XHXi.h.H.J.U.G.U.G.a B.l.z , > z l A S V.1 ",
"x.I.L.L.x.x C.T.< A x a b { 9.k.8.w.q.| [ ` ^ ) ` ) h.g.a.y.y.g.g.9Xi.9Xh.g.7.r.8.H.F.K.Y.z.Y.e.V.m J N @ 1 = c.  C.U.Z.",
"L.C.x V.l.x D x.X B J p p V.v t t c q.q.y u / 8.( 7.7.r.i.q.i.h.g.a.a.a.j.q.e.F.0.F.8.J.U.K.N.z.1 f , z z 1 l 1 D D JXD ",
"D D a L.  D D Z.d d X x.l v.b t t g t [ 8.v i i y y ( i.r.8.r.S.7.J.F.F.e.C 8.j.u F.B.U.F.Y.B.B.2 2 N 2 s = H n l B R.J ",
"@ D d J D X Y.X k C.l.z ; G s = s s s v 7 ] t 8 i u C u F.[ r.r.8.e.( 8.0.0.Z 7 7 Z B.Z F G G Y.M.H N H 2 M.2 H x.H Z.k "
};
