/* XPM */
static char *_55d474b13e3407a914fdbe06571ed24wU5dQutkpDpEyc23[] = {
/* columns rows colors chars-per-pixel */
"60 50 7 1 ",
"  c black",
". c gray15",
"X c gray20",
"o c gray29",
"O c DimGray",
"+ c gray48",
"@ c gray65",
/* pixels */
"oooooooooooooooooooooooooooooooooooooooooooooooooooooooooooo",
"o+OOOOOOOOOOo+OOOOOOOOOOo+OOOOOOOOOOo+OOOOOOOOOOo+OOOOOOOOOO",
"o+OOOOOOOOXXXXOOOOOOOOOOo+OOOOOOOOOOo+OOOOOOOOOOo+OOOOOOOOOO",
"o+OOOOOOOOOOoXXOOOOOOOOOo+OOOOOOOOOOo+OOOOOOOOOOo+OOOOOOOOOO",
"o+++++++++++o+XX++++++++o+++++++++++o+++++++++++o+++++++++++",
"ooooooooooooooo.ooooooooooooooooooXooooooooooooooooooooooooo",
"OOOOOOo+OOOOOO..OOo+OOOOOOOOOOo+OOXOOOOOOOo+OOOOOOOOOOo+OOOO",
"OOOOOOo+OOOOOO.OOOo+OOOOOOOOOOo+OO.OOOOOOOo+OOOOOOOOOOo+OOOO",
"OOOOOOo+OOOOOO.OOOo+OOOOOOOOOOo+O..OOOOOOOo+OOOOOOOOOOo+OOOO",
"++++++o+++++++X++XX...++X+++++@XX.++++++++o+++++++++++o+++++",
"ooooooooooooooX@XXooX.. .....XXooooooooooooooooooooooooooooo",
"o+OOOOOOOOOOo+OOOOOOOO. o+OO. OOOOOOo+OOOOOOOOOOo+OOOOOOOOOO",
"o+OOOOOOOOOOo+OOOOOOOOOXo+OOOOXOOOOOo+OOOOOOOOOOo+OOOOOOOOOO",
"o+OOOOOOOOOOo+OOOOOOOOOXo+OOOOXXOOOOo+OOOOOOOOOOo+OOOOOOOOOO",
"o+++++++++++o++++++++X Xo++++++XX+++XXXX@+++++++o+++++++++++",
"ooooooooooooooooooooXX XooooooooXXXX oooXooooooooooooooooooo",
"OOOOOOo+OOOOOOOOOOoXOOOOX@OOOOo+OOOOOOOO.Oo+OOOOOOOOOOo+OOOO",
"OOOOOOo+OXXOOOOOOOoXOOOOOXOOOOo+OOOOOOOO.Oo+OOOOOOOOOOo+OOOO",
"OOOOOOo+OOXOOOOOOOoXOOOOOXOOOOo+OOOOOOOO.Oo+OOOOOOOOOOo+OOOO",
"++++++o+++XXX+++++oX+++++X++++o+++++++++XXo+++++++++++o+++++",
"ooooooooooooXXooooo.ooooXXXXXXXooooooooooXXXoooooooooooooooo",
"o+OOOOOOOOOOoXO ....OOX  +OOOOXXXOOOo+OOOOOOOOOOo+OOOOOOOOOO",
"o+OOOOOOOOOOoX  .OOOOO@Xo+OOOOOOXOOOo+OOOOOOOOOOo+OOOOOOOOOO",
"o+OOOOOOOOOOo+XXOOOOOOOXo+OOOOOOXOOOo+OOOOOOOOOOo+OOOOOOOOOO",
"o+++++++++++o+++X++++++Xo+++++++X+++o+++++++++++o+++++++++++",
"ooooooooooooooooXooooooXoooooooo@XXooooooooooooooooooooooooo",
"OOOOOOo+OOOOOOOOXOo+OOOXOOOOOOo+OOXX@OOOOOo+OOOOOOOOOOo+OOOO",
"OOOOOOo+OOOOOOOX@Oo+OOOOOOOOOOo+OOOOXOOOOOo+OOOOOOOOOOo+OOOO",
"OOOOOOo+OOOOOOOXOOo+OOOOOOOOOOo+OOOOXOOOOOo+OXXOOOOOOOo+OOOO",
"++++++o++++++++.++o+++++++++++o+++++++++++o+XX++++++++o+++++",
"ooooooooooooooo..oooooooooooooooooooooooooooXooooooooooooooo",
"o+OOOOOOOOOOo+OO..OOOOOOo+OOOOOOOOOOo+OOOOOO@OOOo+OOOOOOOOOO",
"o+OOOOOOOOOOo+OOO..OOOOOo+OOOOOOOOOOo+OOOOOOOXOOo+OOOOOOOOOO",
"o+OOOOOOOOOOo+OOOOOXOOOOo+OOOOOOOOOOo+OOOOOOOXOOo+OOOOOOOOOO",
"o+++++++++++o++++++X++++o+++++++++++o++++++++X++o+++++++++++",
"ooooooooooXoooooooXoooooooooooooooooooooooooXXoooooooooooooo",
"OOOOOOo+OOXOOOOOOOo+OOOOOOOOOOo+OOOOOOOOOOoX  XOOOOOOOo+OOOO",
"OOOOOOo+OOXOOOOOOOo+OOOOOOOO......OOOOOOOOo.XXXXOOOOOOo+OOOO",
"OOOOOOo+OOXOOOOOOOo+OOOOOOOX.Oo+X...OOOOOOo.OOOXXOOOOOo+OOOO",
"++++++o++..+++++++o+++++++XX++o+++@.X+++++o.++++XX++++o+++++",
"ooooooo@X ...oooooooooooooooooooooooXXXoooX.oooooXoooooooooo",
"o+OOOOOXOOOOX+OOOOOOOOOOo+OOOOOOOOOOX XX...OOOOOoX@OOOXXXXOO",
"o+OOOOOXOOOOX+OOOOOOOOOOo+OOOOOOOOOOX  OOOOOOOOOo+...X@OOXXO",
"o+OOOOOXXOOOX@OOOOOOOOOOo+OOOOOOOOO.XXXOOOOOOOOOo+OOOOOOOOXX",
"o+++++++@+++o@XXXXX+++++o+++++++++..o+++++++++++o+++++++++++",
"ooooooooXooooooooooooooooooooooooo.ooooooooooooooooooooooooo",
"OOOOOOo+XOOOOOOOOOo+OOOOOOOOOOo+OO.OOOOOOOo+OOOOOOOOOOo+OOOO",
"OOOOOOo+XOOOOOOOOOo+OOOOOOOOOOo+OO@XX....Oo+OOOOOOOOOOo+OOOO",
"OOOOOOoXXOOOOOOOOOo+OOOOOOOOOOo+OOOOOOOO@Xo+OOOOOOOOOOo+OOOO",
"++++++oX++++++++++o+++++++++++o++++++++++Xo+++++++++++o+++++"
};
